<svg xmlns="http://www.w3.org/2000/svg" xmlns:xlink="http://www.w3.org/1999/xlink" viewBox="0 0 176.19 103.13"><defs><style>.cls-1{font-size:86.33px;letter-spacing:-0.02em;}.cls-1,.cls-2,.cls-4{font-family:TimesNewRomanPSMT, Times New Roman;}.cls-2{font-size:57.99px;letter-spacing:-0.02em;}.cls-3{letter-spacing:-0.01em;}.cls-4{font-size:17px;letter-spacing:0em;}.cls-5{fill:#fff;}.cls-6{fill:url(#linear-gradient);}</style><linearGradient id="linear-gradient" x1="26.95" y1="36.46" x2="37.99" y2="25.42" gradientUnits="userSpaceOnUse"><stop offset="0.25" stop-color="#fff"/><stop offset="1" stop-color="#020202"/></linearGradient></defs><g id="Layer_2" data-name="Layer 2"><g id="Layer_1-2" data-name="Layer 1"><text class="cls-1" transform="translate(0 75.33) scale(1.05)">A</text><text class="cls-2" transform="translate(64.01 75.33)">s<tspan class="cls-3" x="21.64" y="0">pire</tspan></text><text class="cls-4" transform="translate(99.12 87.74) scale(1 0.94)">Developers</text><polygon points="7.8 75.33 30.7 20.32 52.89 75.33 7.8 75.33"/><polygon class="cls-5" points="18.34 75.4 22.52 71.22 42.11 71.22 46.61 75.4 18.34 75.4"/><path class="cls-5" d="M22.63,70.23H41.68L41.6,56.87a6.21,6.21,0,0,1-1.37,1.87,6,6,0,0,1-1.83,1.18c0-3.16,0-6.33,0-9.49H26.55l-.06,9.33a4.82,4.82,0,0,1-3.86-3.22Z"/><rect class="cls-5" x="30.14" y="41.9" width="4.51" height="7.7"/><polygon class="cls-6" points="31.48 40.98 33.76 40.98 32.82 20.25 31.83 20.25 31.48 40.98"/></g></g></svg>